<svg width="111" height="40" viewBox="0 0 111 40" fill="none" xmlns="http://www.w3.org/2000/svg">
<path d="M17.5814 20.0236L12.9795 17.2238V22.5517L17.5814 25.2215L22.1951 22.5517V17.2238L17.5814 20.0236Z" fill="url(#paint0_linear_129_2889)"/>
<path d="M22.1951 17.2238L17.5814 14.554L12.9795 17.2238L17.5814 20.0236L22.1951 17.2238Z" fill="url(#paint1_linear_129_2889)"/>
<path d="M18.7261 3.08319C18.4665 3.23677 18.1715 3.31946 17.8529 3.31946C17.7585 3.31946 17.6641 3.30764 17.5815 3.29583V8.89533C18.4783 8.89533 19.2216 9.59233 19.2925 10.4783H22.8914L18.7261 3.08319Z" fill="#0451A4"/>
<path d="M33.6054 10.3838L33.5582 10.4783H22.9031L18.7378 3.08314C19.1626 2.83507 19.4694 2.39797 19.552 1.89L32.6614 9.52141C33.0391 9.74591 33.3576 10.0412 33.6054 10.3838Z" fill="#0067B6"/>
<path d="M33.5585 10.4783L33.5349 10.5138L25.6291 15.3218L22.9033 10.4783H33.5585Z" fill="#0389CE"/>
<path d="M25.6288 15.3218L19.0327 11.5534C19.2097 11.2817 19.3042 10.9628 19.3042 10.6201C19.3042 10.5728 19.3042 10.5256 19.2923 10.4783H22.8913L25.6288 15.3218Z" fill="#007AC5"/>
<path d="M28.2366 19.8228L26.4195 23.0242C26.1835 22.8942 25.9121 22.8233 25.6289 22.8233V15.3455L28.2366 19.8228Z" fill="#0076C0"/>
<path d="M34.1839 12.1913V27.1824C33.9715 27.0879 33.7355 27.0407 33.4877 27.0407C33.1573 27.0407 32.8505 27.1352 32.591 27.3006L28.2368 19.8227L33.5349 10.5138L33.5821 10.4902H33.6647C34.0069 10.9745 34.1839 11.577 34.1839 12.1913Z" fill="#0065B2"/>
<path d="M26.4194 23.0123C26.9622 23.2959 27.328 23.8748 27.328 24.5245C27.328 24.8788 27.2218 25.1978 27.0448 25.4695L31.8355 28.2693C31.9535 27.8558 32.2249 27.5133 32.5789 27.2888L28.2248 19.8109L26.4194 23.0123Z" fill="#0189D2"/>
<path d="M33.5347 10.5138L28.2366 19.8228L25.6407 15.3455L25.6289 15.3218L33.5347 10.5138Z" fill="#0353A6"/>
<path d="M33.7471 27.7613C32.9802 27.7613 32.3548 28.3875 32.3548 29.1553C32.3548 29.1672 32.3548 29.179 32.3548 29.1908H23.2926L25.393 25.5877C25.4874 25.6113 25.5818 25.635 25.688 25.635C26.2426 25.635 26.691 25.1861 26.691 24.6308C26.691 24.0756 26.2426 23.6267 25.688 23.6267C25.1334 23.6267 24.685 24.0756 24.685 24.6308C24.685 24.9143 24.803 25.1742 24.9918 25.3514L22.7616 29.179H18.5256C18.4311 28.7301 18.03 28.3875 17.5461 28.3875C17.0624 28.3875 16.6611 28.7301 16.5668 29.179H12.3307L10.1831 25.4342C10.4309 25.2569 10.5843 24.9616 10.5843 24.6308C10.5843 24.0756 10.1359 23.6267 9.58134 23.6267C9.43975 23.6267 9.30998 23.6622 9.19195 23.7094L7.04443 19.9646L9.21559 16.2552C9.33354 16.3024 9.45157 16.3261 9.58134 16.3261C10.1359 16.3261 10.5843 15.8772 10.5843 15.3219C10.5843 15.0147 10.4428 14.7312 10.2068 14.5541L12.3189 10.951H16.5196C16.6258 11.3881 17.0152 11.7188 17.4872 11.7188C18.0417 11.7188 18.4901 11.2699 18.4901 10.7147C18.4901 10.1595 18.0417 9.71058 17.4872 9.71058C17.0152 9.71058 16.6258 10.0413 16.5196 10.4784H12.5785L17.2866 2.43355C17.4164 2.4808 17.5579 2.50443 17.7114 2.50443C18.4075 2.50443 18.9622 1.9492 18.9622 1.25222C18.9622 0.555225 18.4075 0 17.7114 0C17.0152 0 16.4605 0.555225 16.4605 1.25222C16.4605 1.40579 16.4842 1.54755 16.5314 1.6775L2.48974 9.88775C2.25374 9.58058 1.87616 9.39158 1.46317 9.39158C0.74338 9.39158 0.153395 9.98225 0.153395 10.7029C0.153395 11.2699 0.507388 11.7425 1.01478 11.9315V28.0803C0.43659 28.2339 0 28.7537 0 29.3798C0 30.124 0.601784 30.7265 1.34517 30.7265C1.75816 30.7265 2.13575 30.5375 2.38354 30.2422L16.1892 38.1571C16.1302 38.3107 16.1066 38.4642 16.1066 38.6297C16.1066 39.3857 16.7202 40 17.4754 40C18.2306 40 18.8441 39.3857 18.8441 38.6297C18.8441 38.4642 18.8087 38.3107 18.7616 38.1571L32.8032 30.1595C33.0509 30.3721 33.3578 30.5021 33.7118 30.5021C34.4787 30.5021 35.1042 29.876 35.1042 29.1081C35.1277 28.3875 34.5023 27.7613 33.7471 27.7613ZM17.7822 37.3183V30.3721C18.1361 30.2894 18.4194 30.0059 18.5138 29.6515H22.5021L17.9945 37.3774C17.9238 37.3538 17.8529 37.3302 17.7822 37.3183ZM16.5904 29.6515C16.6848 30.0059 16.968 30.2894 17.322 30.3721V37.3066C17.2276 37.3183 17.1214 37.342 17.0388 37.3774L12.6021 29.6515H16.5904ZM11.8233 29.1908H2.71393C2.69033 29.0608 2.65493 28.9309 2.59593 28.8127L8.88514 25.316C9.06219 25.5168 9.33354 25.6467 9.6168 25.6467C9.67573 25.6467 9.73474 25.635 9.78194 25.635L11.8233 29.1908ZM1.94695 11.9669L6.53703 19.9763L1.75816 28.1276C1.67555 28.104 1.59296 28.0922 1.51036 28.0803V12.0378C1.66376 12.0378 1.80535 12.0142 1.94695 11.9669ZM8.84977 24.0047C8.70818 24.1819 8.61379 24.3946 8.61379 24.6427C8.61379 24.7372 8.62561 24.8317 8.66098 24.9143L2.32455 28.4466C2.27734 28.3993 2.23015 28.3638 2.18294 28.3284L6.80843 20.4252L8.84977 24.0047ZM2.33634 11.7425C2.39534 11.6952 2.45434 11.6362 2.50154 11.5771L8.64916 15.0738C8.62561 15.1565 8.60197 15.251 8.60197 15.3455C8.60197 15.6054 8.69636 15.8299 8.86159 16.0071L6.79663 19.5275L2.33634 11.7425ZM9.8174 14.365C9.74656 14.3533 9.67573 14.3414 9.60498 14.3414C9.30998 14.3414 9.05037 14.4713 8.87341 14.6603L2.72573 11.1754C2.74933 11.1046 2.77293 11.0337 2.78473 10.9627H11.8115L9.8174 14.365ZM16.8028 2.10277C16.8382 2.15003 16.8854 2.19728 16.9326 2.23272L12.0829 10.5021H2.78473C2.77293 10.443 2.76113 10.3839 2.73753 10.3248L16.8028 2.10277ZM2.64314 29.876C2.66673 29.8051 2.69033 29.7224 2.70213 29.6397H12.0711L16.6258 37.5901C16.555 37.6492 16.496 37.7082 16.437 37.7791L2.64314 29.876ZM18.3839 37.6019L23.0212 29.6397H32.4374C32.461 29.7106 32.4964 29.7697 32.5318 29.8287L18.561 37.7791C18.5138 37.72 18.4547 37.6609 18.3839 37.6019Z" fill="#0095D9"/>
<path d="M46.668 8.26942H49.6651L55.8599 22.1855H52.7684L51.6003 19.3976H44.7446L43.5765 22.1855H40.4849L46.668 8.26942ZM50.5736 17.0231L48.1547 11.3408L45.7475 17.0231H50.5736Z" fill="#008BCE"/>
<path d="M56.7566 19.7993H64.0016C64.5208 19.7993 64.9573 19.6811 65.3349 19.433C65.7007 19.1849 65.8895 18.7478 65.8895 18.1099C65.8895 17.4838 65.7007 17.0468 65.3349 16.7987C64.9692 16.5506 64.5208 16.4206 64.0016 16.4206H60.6268C59.9778 16.4206 59.3879 16.3498 58.8569 16.208C58.3259 16.0662 57.8775 15.8418 57.5117 15.5228C57.146 15.2038 56.851 14.7786 56.6622 14.2588C56.4616 13.739 56.3672 13.1011 56.3672 12.345C56.3672 11.5772 56.4616 10.9274 56.6622 10.4076C56.8628 9.88784 57.146 9.46259 57.5117 9.14359C57.8775 8.82467 58.3377 8.60017 58.8569 8.47026C59.3879 8.34026 59.9778 8.26942 60.6268 8.26942H68.2613V10.6557H61.0162C60.4971 10.6557 60.0605 10.7738 59.6829 11.0219C59.3171 11.27 59.1283 11.7071 59.1283 12.345C59.1283 12.9711 59.3171 13.4082 59.6829 13.6563C60.0487 13.9043 60.4971 14.0343 61.0162 14.0343H64.391C65.0399 14.0343 65.6299 14.1052 66.1609 14.2469C66.6919 14.3888 67.1403 14.6132 67.5061 14.9322C67.8719 15.2511 68.1669 15.6763 68.3556 16.1962C68.5563 16.7159 68.6506 17.3538 68.6506 18.1099C68.6506 18.8896 68.5563 19.5393 68.3556 20.0591C68.155 20.5789 67.8719 20.9924 67.5061 21.3113C67.1403 21.6303 66.6801 21.8548 66.1609 21.9847C65.6299 22.1147 65.0399 22.1855 64.391 22.1855H56.7447V19.7993H56.7566Z" fill="#008BCE"/>
<path d="M74.4442 10.6557H69.4766V8.26942H82.1849V10.6557H77.2172V22.1855H74.4324V10.6557H74.4442Z" fill="#008BCE"/>
<path d="M83.2944 8.26942H91.5299C92.1442 8.26942 92.7102 8.34026 93.2529 8.49384C93.7956 8.63559 94.2676 8.87192 94.6804 9.20267C95.0941 9.52159 95.4121 9.95876 95.6485 10.4903C95.884 11.0219 95.9906 11.6834 95.9906 12.4513C95.9906 13.1247 95.9082 13.7153 95.7542 14.2115C95.601 14.7077 95.3771 15.1329 95.0941 15.4756C94.8103 15.8182 94.4682 16.0898 94.0786 16.2907C93.6899 16.4915 93.2646 16.6333 92.8168 16.7278L95.9789 22.1973H92.7577L89.8194 16.8341H86.0787V22.1973H83.2944V8.26942ZM91.5299 14.436C91.9902 14.436 92.3914 14.2942 92.7219 14.0107C93.0523 13.7272 93.218 13.2074 93.218 12.4513C93.218 11.7898 93.0523 11.3291 92.7219 11.0573C92.3914 10.7974 91.9902 10.6557 91.5299 10.6557H86.0787V14.436H91.5299Z" fill="#008BCE"/>
<path d="M97.4888 15.2275C97.4888 13.8926 97.6661 12.7585 98.0198 11.8253C98.3744 10.892 98.8464 10.1478 99.4598 9.58068C100.073 9.01368 100.781 8.60018 101.607 8.3521C102.433 8.10401 103.306 7.9741 104.25 7.9741C105.159 7.9741 106.032 8.10401 106.846 8.3521C107.672 8.60018 108.38 9.01368 109.005 9.58068C109.619 10.1478 110.103 10.9038 110.469 11.8253C110.823 12.7585 111 13.8808 111 15.2275C111 16.5623 110.823 17.6964 110.469 18.6297C110.115 19.5629 109.619 20.3072 109.005 20.8743C108.392 21.4413 107.672 21.8548 106.846 22.1028C106.021 22.3509 105.159 22.4808 104.25 22.4808C103.306 22.4808 102.433 22.3509 101.607 22.1028C100.781 21.8548 100.073 21.4413 99.4598 20.8743C98.8464 20.3072 98.3744 19.5512 98.0198 18.6297C97.6661 17.7083 97.4888 16.5742 97.4888 15.2275ZM104.238 20.1063C104.781 20.1063 105.289 20.0355 105.773 19.8819C106.256 19.7283 106.681 19.4684 107.035 19.1023C107.389 18.736 107.672 18.2281 107.884 17.6019C108.097 16.9758 108.203 16.1843 108.203 15.2511C108.203 14.306 108.097 13.5263 107.884 12.9003C107.672 12.2741 107.389 11.7662 107.035 11.3999C106.681 11.0338 106.256 10.762 105.773 10.6203C105.289 10.4667 104.781 10.3958 104.238 10.3958C103.684 10.3958 103.165 10.4667 102.681 10.6203C102.197 10.7738 101.772 11.0338 101.418 11.3999C101.065 11.7662 100.781 12.2741 100.569 12.9003C100.368 13.5263 100.262 14.3178 100.262 15.2511C100.262 16.1962 100.368 16.9758 100.569 17.6019C100.769 18.2281 101.052 18.736 101.418 19.1023C101.772 19.4684 102.197 19.7402 102.681 19.8819C103.165 20.0237 103.684 20.1063 104.238 20.1063Z" fill="#008BCE"/>
<path d="M42.6207 25.8949H43.659L45.8066 30.7148H44.7328L44.3316 29.7461H41.9481L41.5469 30.7148H40.4731L42.6207 25.8949ZM43.9659 28.9309L43.1281 26.9581L42.3021 28.9309H43.9659Z" fill="#0095D9"/>
<path d="M47.6352 30.7148C47.3874 30.7148 47.1632 30.6793 46.9508 30.6085C46.7385 30.5376 46.5496 30.4194 46.3845 30.2541C46.2192 30.0887 46.1013 29.876 46.0068 29.6162C45.9124 29.3562 45.8652 29.0255 45.8652 28.6474C45.8652 28.2694 45.9124 27.9387 46.0068 27.6787C46.1013 27.4188 46.2311 27.2062 46.3845 27.0408C46.5496 26.8754 46.7385 26.7573 46.9508 26.6864C47.1632 26.6156 47.3992 26.5801 47.6352 26.5801H48.7444V25.1979H49.6412V30.703H47.6352V30.7148ZM48.7562 29.9351V27.3598H47.765C47.6235 27.3598 47.4936 27.3834 47.3757 27.4188C47.2576 27.4543 47.1514 27.5252 47.057 27.6315C46.9626 27.726 46.8918 27.8677 46.8446 28.0332C46.7974 28.1986 46.762 28.3994 46.762 28.6474C46.762 28.8955 46.7857 29.0963 46.8446 29.2617C46.8918 29.4272 46.9626 29.5571 47.057 29.6634C47.1514 29.7579 47.2576 29.8287 47.3757 29.876C47.4936 29.9115 47.6235 29.9351 47.765 29.9351H48.7562Z" fill="#0095D9"/>
<path d="M49.9248 26.5919H50.9277L52.2139 29.6279L53.5001 26.5919H54.5031L52.6623 30.7266H51.7655L49.9248 26.5919Z" fill="#0095D9"/>
<path d="M54.5737 29.4271C54.5737 29.179 54.6092 28.9782 54.6682 28.8128C54.7271 28.6474 54.8215 28.5175 54.9277 28.4112C55.0339 28.3167 55.1637 28.2457 55.3171 28.1985C55.4705 28.1512 55.6239 28.1277 55.7892 28.1277H57.4529C57.4529 27.9859 57.4293 27.8677 57.3703 27.7614C57.3113 27.6551 57.2405 27.5842 57.1579 27.5252C57.0635 27.4661 56.9691 27.4188 56.8393 27.3952C56.7213 27.3716 56.5916 27.3597 56.4499 27.3597H54.8333V26.5801H56.5797C56.8275 26.5801 57.0517 26.6037 57.2641 26.6627C57.4765 26.71 57.6653 26.8046 57.8305 26.9227C57.9957 27.0408 58.1255 27.2062 58.2198 27.407C58.3142 27.6078 58.3614 27.8441 58.3614 28.1394V30.7147H55.801C55.6357 30.7147 55.4705 30.6912 55.3289 30.6439C55.1755 30.5967 55.0458 30.5257 54.9396 30.4312C54.8333 30.3249 54.739 30.195 54.6799 30.0296C54.5974 29.876 54.5737 29.6752 54.5737 29.4271ZM55.4705 29.4271C55.4705 29.6162 55.5177 29.7461 55.6239 29.8287C55.7301 29.8997 55.8482 29.9469 55.9898 29.9469H57.4647V28.9192H55.9898C55.8482 28.9192 55.7301 28.9546 55.6239 29.0254C55.5177 29.0963 55.4705 29.2381 55.4705 29.4271Z" fill="#0095D9"/>
<path d="M59.1045 26.5919H60.9688C61.2166 26.5919 61.4408 26.6156 61.6532 26.6746C61.8656 26.7218 62.0544 26.8164 62.2196 26.9345C62.3848 27.0527 62.5028 27.218 62.5972 27.4188C62.6916 27.6197 62.7388 27.8678 62.7388 28.1513V30.7148H61.842V28.1513C61.842 28.0095 61.8184 27.8796 61.7594 27.7851C61.7122 27.6906 61.6414 27.6078 61.547 27.5488C61.4526 27.4898 61.3464 27.4425 61.2285 27.4188C61.1104 27.3953 60.9807 27.3834 60.8391 27.3834H60.0013V30.7384H59.1045V26.5919Z" fill="#0095D9"/>
<path d="M64.3912 30.6084C64.1788 30.5376 63.99 30.4194 63.8248 30.2541C63.6597 30.0887 63.5416 29.876 63.4473 29.6161C63.3529 29.3562 63.3057 29.0255 63.3057 28.6474C63.3057 28.2694 63.3529 27.9387 63.4473 27.6787C63.5416 27.4188 63.6714 27.2062 63.8248 27.0408C63.99 26.8754 64.1788 26.7573 64.3912 26.6864C64.6036 26.6155 64.8396 26.5801 65.0756 26.5801H66.6096V27.3597H65.1936C65.052 27.3597 64.9222 27.3834 64.8042 27.4188C64.6862 27.4542 64.58 27.5252 64.4856 27.6315C64.3912 27.726 64.3204 27.8677 64.2732 28.0332C64.226 28.1985 64.1906 28.3993 64.1906 28.6474C64.1906 28.8955 64.2142 29.0963 64.2732 29.2617C64.3204 29.4271 64.3912 29.5571 64.4856 29.6634C64.58 29.7579 64.6862 29.8287 64.8042 29.876C64.9222 29.9115 65.052 29.9351 65.1936 29.9351H66.6096V30.7147H65.0756C64.8278 30.7147 64.6036 30.6793 64.3912 30.6084Z" fill="#0095D9"/>
<path d="M68.2496 30.6084C68.0373 30.5376 67.8484 30.4194 67.6833 30.2541C67.5181 30.0887 67.4001 29.876 67.3057 29.6161C67.2113 29.3562 67.1641 29.0255 67.1641 28.6474C67.1641 28.2694 67.2113 27.9387 67.3057 27.6787C67.4001 27.4188 67.5299 27.2062 67.6833 27.0408C67.8484 26.8754 68.0373 26.7573 68.2496 26.6864C68.4621 26.6155 68.698 26.5801 68.934 26.5801H70.468V27.3597H69.052C68.934 27.3597 68.8161 27.3716 68.7099 27.407C68.6036 27.4425 68.5093 27.4897 68.4267 27.5606C68.344 27.6315 68.2733 27.726 68.2143 27.8323C68.1552 27.9504 68.1081 28.0922 68.0845 28.2576H70.468V29.0372H68.0845C68.1081 29.2145 68.1552 29.3562 68.2143 29.4743C68.2733 29.5925 68.344 29.6752 68.4267 29.7461C68.5093 29.8169 68.6036 29.8642 68.7099 29.8878C68.8161 29.9115 68.9223 29.9232 69.052 29.9232H70.468V30.7029H68.934C68.6862 30.7147 68.4621 30.6793 68.2496 30.6084Z" fill="#0095D9"/>
<path d="M72.8632 30.7148C72.6154 30.7148 72.3913 30.6793 72.1788 30.6085C71.9664 30.5376 71.7776 30.4194 71.6125 30.2541C71.4473 30.0887 71.3292 29.876 71.2348 29.6162C71.1405 29.3562 71.0933 29.0255 71.0933 28.6474C71.0933 28.2694 71.1405 27.9387 71.2348 27.6787C71.3292 27.4188 71.4591 27.2062 71.6125 27.0408C71.7776 26.8754 71.9664 26.7573 72.1788 26.6864C72.3913 26.6156 72.6272 26.5801 72.8632 26.5801H73.9724V25.1979H74.8691V30.703H72.8632V30.7148ZM73.9724 29.9351V27.3598H72.9812C72.8397 27.3598 72.7098 27.3834 72.5919 27.4188C72.4738 27.4543 72.3676 27.5252 72.2732 27.6315C72.1788 27.726 72.1081 27.8677 72.0609 28.0332C72.0137 28.1986 71.9782 28.3994 71.9782 28.6474C71.9782 28.8955 72.0019 29.0963 72.0609 29.2617C72.1081 29.4272 72.1788 29.5571 72.2732 29.6634C72.3676 29.7579 72.4738 29.8287 72.5919 29.876C72.7098 29.9115 72.8397 29.9351 72.9812 29.9351H73.9724Z" fill="#0095D9"/>
<path d="M80.7216 25.8949H81.76L83.9078 30.7148H82.8338L82.4326 29.7461H80.0609L79.6597 30.7148H78.5859L80.7216 25.8949ZM82.0786 28.9309L81.2409 26.9581L80.4148 28.9309H82.0786Z" fill="#0095D9"/>
<path d="M84.1794 26.5919H86.0439C86.2911 26.5919 86.5159 26.6156 86.7281 26.6746C86.9404 26.7218 87.1293 26.8164 87.2941 26.9345C87.4598 27.0527 87.5772 27.218 87.672 27.4188C87.7661 27.6197 87.8135 27.8678 87.8135 28.1513V30.7148H86.9171V28.1513C86.9171 28.0095 86.8929 27.8796 86.8338 27.7851C86.7872 27.6906 86.7165 27.6078 86.6216 27.5488C86.5275 27.4898 86.421 27.4425 86.3028 27.4188C86.1854 27.3953 86.0556 27.3834 85.9141 27.3834H85.0526V30.7384H84.1553V26.5919H84.1794Z" fill="#0095D9"/>
<path d="M88.3794 29.4271C88.3794 29.179 88.4152 28.9782 88.4743 28.8128C88.5334 28.6474 88.6274 28.5175 88.734 28.4112C88.8397 28.3167 88.9695 28.2457 89.1235 28.1985C89.2767 28.1512 89.4298 28.1277 89.5955 28.1277H91.2586C91.2586 27.9859 91.2353 27.8677 91.1762 27.7614C91.1171 27.6551 91.0463 27.5842 90.9639 27.5252C90.8698 27.4661 90.775 27.4188 90.6451 27.3952C90.5269 27.3716 90.3979 27.3597 90.2556 27.3597H88.6391V26.5801H90.3738C90.6218 26.5801 90.8457 26.6037 91.058 26.6627C91.2711 26.71 91.4592 26.8046 91.6248 26.9227C91.7896 27.0408 91.9195 27.2062 92.0144 27.407C92.1084 27.6078 92.1559 27.8441 92.1559 28.1394V30.7147H89.5955C89.4298 30.7147 89.265 30.6912 89.1235 30.6439C88.9695 30.5967 88.8397 30.5257 88.734 30.4312C88.6274 30.3249 88.5334 30.195 88.4743 30.0296C88.4035 29.876 88.3794 29.6752 88.3794 29.4271ZM89.265 29.4271C89.265 29.6162 89.3117 29.7461 89.4182 29.8287C89.5239 29.8997 89.6421 29.9469 89.7836 29.9469H91.2586V28.9192H89.7836C89.6421 28.9192 89.5239 28.9546 89.4182 29.0254C89.3233 29.0963 89.265 29.2381 89.265 29.4271Z" fill="#0095D9"/>
<path d="M92.9106 25.2097H93.8071V30.7147H92.9106V25.2097Z" fill="#0095D9"/>
<path d="M96.3916 31.3173C96.5922 31.3173 96.7695 31.27 96.8994 31.1873C97.0409 31.0928 97.1116 30.9393 97.1116 30.7266H96.0021C95.754 30.7266 95.5418 30.703 95.3295 30.6439C95.1289 30.5967 94.9516 30.5022 94.8101 30.384C94.6686 30.2659 94.5504 30.1005 94.4797 29.8997C94.3973 29.6988 94.3623 29.4508 94.3623 29.1673V26.6038H95.2588V29.1673C95.2588 29.4626 95.3295 29.6634 95.4827 29.7816C95.6367 29.8997 95.8489 29.9588 96.1203 29.9588H97.1116V26.6038H98.0081V30.7384C98.0081 30.9983 97.9731 31.2109 97.9015 31.3882C97.8308 31.5653 97.7367 31.7071 97.6069 31.8134C97.4887 31.9198 97.3355 32.0024 97.1707 32.0498C97.0051 32.097 96.8278 32.1206 96.6397 32.1206H94.6337V31.3409H96.3916V31.3173Z" fill="#0095D9"/>
<path d="M99.3183 27.348H98.6333V26.5683H99.3183V25.5523H100.215V26.5683H101.182V27.348H100.215V29.4862C100.215 29.6634 100.274 29.7815 100.392 29.8524C100.509 29.9233 100.639 29.9469 100.805 29.9469H101.182V30.7266H100.687C100.498 30.7266 100.321 30.703 100.156 30.6558C99.9909 30.6084 99.8486 30.5258 99.7195 30.4194C99.6013 30.3131 99.4948 30.1713 99.4241 29.9942C99.3533 29.8169 99.3183 29.6043 99.3183 29.3444V27.348Z" fill="#0095D9"/>
<path d="M101.867 25.2097H102.764V26.1075H101.867V25.2097ZM101.867 26.5918H102.764V30.7266H101.867V26.5918Z" fill="#0095D9"/>
<path d="M104.462 30.6084C104.25 30.5376 104.061 30.4194 103.896 30.2541C103.731 30.0887 103.613 29.876 103.518 29.6161C103.424 29.3562 103.377 29.0255 103.377 28.6474C103.377 28.2694 103.424 27.9387 103.518 27.6787C103.613 27.4188 103.743 27.2062 103.896 27.0408C104.061 26.8754 104.25 26.7573 104.462 26.6864C104.675 26.6155 104.911 26.5801 105.147 26.5801H106.681V27.3597H105.265C105.123 27.3597 104.993 27.3834 104.876 27.4188C104.758 27.4542 104.651 27.5252 104.557 27.6315C104.462 27.726 104.392 27.8677 104.345 28.0332C104.298 28.1985 104.262 28.3993 104.262 28.6474C104.262 28.8955 104.286 29.0963 104.345 29.2617C104.392 29.4271 104.462 29.5571 104.557 29.6634C104.651 29.7579 104.758 29.8287 104.876 29.876C104.993 29.9115 105.123 29.9351 105.265 29.9351H106.681V30.7147H105.147C104.911 30.7147 104.675 30.6793 104.462 30.6084Z" fill="#0095D9"/>
<path d="M107.448 29.9351H109.607C109.761 29.9351 109.89 29.8997 110.009 29.8406C110.115 29.7698 110.173 29.6634 110.173 29.498C110.173 29.3208 110.115 29.2027 110.009 29.1436C109.902 29.0846 109.773 29.0491 109.607 29.0491H108.604C108.415 29.0491 108.239 29.0255 108.073 28.9901C107.92 28.9428 107.779 28.8838 107.672 28.7893C107.566 28.6948 107.472 28.5648 107.412 28.4112C107.353 28.2576 107.318 28.0568 107.318 27.8205C107.318 27.5961 107.353 27.3953 107.412 27.2417C107.472 27.0881 107.554 26.9582 107.672 26.8637C107.779 26.7692 107.92 26.6983 108.073 26.6628C108.226 26.6274 108.404 26.6038 108.604 26.6038H110.882V27.3834H108.723C108.569 27.3834 108.44 27.4188 108.321 27.4779C108.215 27.5488 108.156 27.6552 108.156 27.8205C108.156 27.9978 108.215 28.1158 108.321 28.1749C108.427 28.234 108.569 28.2694 108.723 28.2694H109.726C109.915 28.2694 110.091 28.2931 110.245 28.3285C110.398 28.3639 110.54 28.4348 110.646 28.5293C110.752 28.6238 110.834 28.7538 110.905 28.9073C110.964 29.0609 111 29.2618 111 29.498C111 29.7225 110.964 29.9233 110.905 30.0769C110.847 30.2304 110.764 30.3604 110.658 30.4549C110.551 30.5494 110.41 30.6203 110.257 30.6558C110.103 30.6912 109.926 30.7148 109.737 30.7148H107.46V29.9351H107.448Z" fill="#0095D9"/>
<defs>
<linearGradient id="paint0_linear_129_2889" x1="17.5858" y1="26.2666" x2="17.5858" y2="17.2243" gradientUnits="userSpaceOnUse">
<stop stop-color="#2BC4F3"/>
<stop offset="0.5" stop-color="#00AEEE"/>
<stop offset="1" stop-color="#0095DA"/>
</linearGradient>
<linearGradient id="paint1_linear_129_2889" x1="17.5858" y1="23.09" x2="17.5858" y2="13.3495" gradientUnits="userSpaceOnUse">
<stop stop-color="#2BC4F3"/>
<stop offset="0.5" stop-color="#00AEEE"/>
<stop offset="1" stop-color="#0095DA"/>
</linearGradient>
</defs>
</svg>
