<svg width="136" height="48" viewBox="0 0 136 48" fill="none" xmlns="http://www.w3.org/2000/svg">
<path d="M15.418 22.3209L18.558 24.0425L22.4724 21.8941C22.6043 21.8222 22.7277 21.7359 22.8511 21.6495L15.4265 17.5781V22.3209H15.418Z" fill="white"/>
<path d="M11.6406 39.5167C11.6406 40.4327 11.9512 41.3438 12.5682 41.9385C13.0787 42.4276 13.6999 42.6722 14.3211 42.6722C14.7381 42.6722 15.1593 42.5619 15.5465 42.3365L24.2773 37.2868C27.0089 35.7043 28.5916 32.4385 28.2555 28.9282C28.1449 27.7821 27.8045 26.7031 27.2982 25.7344C26.6174 26.4585 25.8431 27.0867 24.9708 27.5663L24.1326 28.0266C24.4007 28.6357 24.5411 29.331 24.5113 30.0695C24.4517 31.5609 23.6093 32.8749 22.4307 33.5559L15.6273 37.493C15.538 37.5458 15.4274 37.469 15.4274 37.354V30.5587L11.6704 32.6591L11.6449 39.5167H11.6406Z" fill="white"/>
<path d="M24.2731 10.797L15.6614 5.81446C14.8743 5.35889 13.9297 5.28216 13.1383 5.72335C12.2065 6.24606 11.6406 7.2819 11.6406 8.43762V16.4845C11.6406 16.4845 11.6449 16.5277 11.6449 16.5517V19.0837C11.6449 19.8414 12.0363 20.532 12.649 20.8485L15.4231 22.3207V21.4287L15.4274 16.0961V10.7011C15.4274 10.5956 15.5252 10.5333 15.6061 10.5764L22.4307 14.528C23.6093 15.2089 24.4475 16.5229 24.5113 18.0143C24.5794 19.7023 23.805 21.1698 22.4775 21.8987L18.3249 24.1766L12.849 27.0683C12.4363 27.2841 12.1214 27.6485 11.9129 28.0801C11.8363 28.224 11.7768 28.3727 11.7342 28.5309C11.7342 28.5453 11.73 28.5597 11.7257 28.5741C11.6619 28.8186 11.6321 29.068 11.6491 29.327L11.6704 32.6695L19.0184 28.5693V28.5501L23.8986 25.8742C26.2473 24.589 27.9832 22.0905 28.2598 19.1604C28.5959 15.6501 27.0131 12.3843 24.2816 10.8066L24.2731 10.797Z" fill="#FF5600"/>
<path d="M47.3198 18.6795C47.3198 21.0037 45.829 22.3368 43.0796 22.3368C41.6379 22.3368 40.7363 22.2462 39.9999 22.0953V10.4645C40.7363 10.2985 41.7049 10.1526 43.0126 10.1526C45.6014 10.1526 46.8288 11.2442 46.8288 13.3068C46.8288 14.5443 46.32 15.3543 45.5166 15.8372C46.6458 16.2598 47.3198 17.1502 47.3198 18.6795ZM41.3255 11.536V15.3392H43.276C44.9319 15.3392 45.5523 14.5846 45.5523 13.3068C45.5523 12.1095 44.6998 11.4404 43.0975 11.4404C42.4904 11.4404 41.9191 11.4606 41.3255 11.531V11.536ZM46.012 18.755C46.012 17.3313 45.0479 16.6874 43.4233 16.6874H41.3255V20.8779C41.7361 20.9534 42.2449 21.0087 42.9948 21.0087C45.1238 21.0087 46.0076 20.3597 46.0076 18.755H46.012Z" fill="white"/>
<path d="M49.0936 10.8524C49.0936 10.2638 49.5043 9.80103 50.0443 9.80103C50.5531 9.80103 50.9638 10.2638 50.9638 10.8524C50.9638 11.441 50.5531 11.9038 50.0443 11.9038C49.5355 11.9038 49.0936 11.441 49.0936 10.8524ZM49.3748 22.116V13.403C49.6025 13.3476 49.8345 13.3275 50.0443 13.3275C50.2541 13.3275 50.4862 13.3476 50.7004 13.403V22.116C50.4862 22.1714 50.2586 22.1915 50.0443 22.1915C49.8301 22.1915 49.6025 22.1714 49.3748 22.116Z" fill="white"/>
<path d="M57.4599 14.7462C57.0359 14.6154 56.5271 14.56 56.0539 14.56C55.38 14.56 54.7908 14.7059 54.3668 15.0027V22.111C54.1525 22.1664 53.9249 22.1865 53.6973 22.1865C53.4697 22.1865 53.2554 22.1664 53.0233 22.111V14.3387C53.6616 13.73 54.8578 13.1565 56.1343 13.1565C56.7547 13.1565 57.2635 13.247 57.7902 13.4533C57.8214 13.896 57.692 14.4142 57.4644 14.7462H57.4599Z" fill="white"/>
<path d="M70.9656 16.5248V22.1188C70.7514 22.1742 70.5238 22.1943 70.3095 22.1943C70.0819 22.1943 69.8498 22.1742 69.64 22.1188V17.1536C69.64 15.7501 69.1312 14.5528 67.5779 14.5528C66.6585 14.5528 66.0381 15.0307 65.5962 15.4935C65.6765 15.8255 65.7256 16.1777 65.7256 16.5248V22.1188C65.5114 22.1742 65.2838 22.1943 65.0695 22.1943C64.8419 22.1943 64.6098 22.1742 64.4 22.1188V17.1536C64.4 15.7501 63.8912 14.5528 62.3379 14.5528C61.664 14.5528 60.9454 14.7942 60.4544 15.1413V22.1188C60.2402 22.1742 59.9947 22.1943 59.7849 22.1943C59.5751 22.1943 59.3609 22.1742 59.1288 22.1188V14.4924C59.834 13.7931 61.1775 13.1643 62.5343 13.1643C63.6636 13.1643 64.5161 13.6422 65.0561 14.3817C65.7256 13.7177 66.7433 13.1643 67.7743 13.1643C69.823 13.1643 70.9701 14.7691 70.9701 16.5248H70.9656Z" fill="white"/>
<path d="M72.9999 10.8524C72.9999 10.2638 73.4105 9.80103 73.9506 9.80103C74.4594 9.80103 74.87 10.2638 74.87 10.8524C74.87 11.441 74.4594 11.9038 73.9506 11.9038C73.4418 11.9038 72.9999 11.441 72.9999 10.8524ZM73.2811 22.116V13.403C73.5087 13.3476 73.7408 13.3275 73.9506 13.3275C74.1604 13.3275 74.3925 13.3476 74.6067 13.403V22.116C74.3925 22.1714 74.1648 22.1915 73.9506 22.1915C73.7363 22.1915 73.5087 22.1714 73.2811 22.116Z" fill="white"/>
<path d="M83.9192 16.7059V22.1138C83.705 22.1691 83.4595 22.1893 83.2497 22.1893C83.0399 22.1893 82.8257 22.1691 82.5936 22.1138V17.224C82.5936 15.3225 81.8214 14.5477 80.3351 14.5477C79.4692 14.5477 78.6971 14.8596 78.2552 15.1564V22.1188C78.0409 22.1742 77.7955 22.1943 77.5857 22.1943C77.3759 22.1943 77.1617 22.1742 76.9296 22.1188V14.4924C77.6839 13.7931 79.0095 13.1643 80.469 13.1643C82.8748 13.1643 83.9237 14.8244 83.9237 16.7109L83.9192 16.7059Z" fill="white"/>
<path d="M92.8745 14.2912V21.8975C92.8745 24.0758 91.3837 25.7359 89.1878 25.7359C87.8264 25.7359 86.6169 25.2529 85.8135 24.2216C85.9295 23.8544 86.2241 23.4067 86.666 23.2055C87.1748 23.8695 87.9425 24.4027 89.1878 24.4027C90.8258 24.4027 91.5444 23.296 91.5444 21.8925V21.3944C91.0222 21.6912 90.4152 21.9126 89.6921 21.9126C87.4962 21.9126 85.6796 20.2877 85.6796 17.6315C85.6796 14.9753 87.4158 13.1643 89.8082 13.1643C90.9374 13.1643 92.0666 13.5869 92.87 14.2912H92.8745ZM91.5489 19.9607V15.1061C91.1561 14.754 90.5179 14.5326 89.8126 14.5326C88.1746 14.5326 87.0454 15.8054 87.0454 17.6315C87.0454 19.4576 88.1746 20.6046 89.8126 20.6046C90.6785 20.6046 91.1561 20.2927 91.5489 19.9607Z" fill="white"/>
<path d="M102.185 16.7247V22.1175C101.971 22.1728 101.725 22.193 101.515 22.193C101.306 22.193 101.091 22.1728 100.859 22.1175V17.2629C100.859 15.8393 100.399 14.5866 98.6007 14.5866C97.9134 14.5866 97.1412 14.8432 96.5521 15.2356V22.1225C96.3378 22.1779 96.1102 22.198 95.8959 22.198C95.6817 22.198 95.4541 22.1779 95.2264 22.1225V9.99367C95.4541 9.93834 95.6862 9.91821 95.8959 9.91821C96.1057 9.91821 96.3378 9.93834 96.5521 9.99367V13.8522C97.1903 13.4447 97.9134 13.168 98.8462 13.168C101.172 13.168 102.185 14.9237 102.185 16.7297V16.7247Z" fill="white"/>
<path d="M110.521 16.555V21.5202C109.803 21.9629 108.441 22.3704 107.227 22.3704C104.866 22.3704 103.902 21.153 103.902 19.5482C103.902 17.7774 105.277 16.7813 107.08 16.7813C107.933 16.7813 108.669 16.9675 109.227 17.224V16.56C109.227 15.247 108.473 14.5477 107.116 14.5477C106.183 14.5477 105.397 14.9351 104.92 15.3426C104.545 15.1413 104.313 14.754 104.25 14.3465C104.741 13.7931 105.871 13.1643 107.183 13.1643C109.035 13.1643 110.526 14.1252 110.526 16.56L110.521 16.555ZM107.245 21.0423C108.031 21.0423 108.718 20.8964 109.227 20.6901V18.5672C108.607 18.2352 107.866 18.0893 107.08 18.0893C106.013 18.0893 105.264 18.4767 105.264 19.4727C105.264 20.4135 105.92 21.0423 107.245 21.0423Z" fill="white"/>
<path d="M124.567 16.5248V22.1188C124.353 22.1742 124.125 22.1943 123.911 22.1943C123.683 22.1943 123.451 22.1742 123.242 22.1188V17.1536C123.242 15.7501 122.733 14.5528 121.179 14.5528C120.26 14.5528 119.64 15.0307 119.198 15.4935C119.278 15.8255 119.327 16.1777 119.327 16.5248V22.1188C119.113 22.1742 118.885 22.1943 118.671 22.1943C118.443 22.1943 118.211 22.1742 118.002 22.1188V17.1536C118.002 15.7501 117.493 14.5528 115.94 14.5528C115.266 14.5528 114.547 14.7942 114.056 15.1413V22.1188C113.842 22.1742 113.596 22.1943 113.386 22.1943C113.177 22.1943 112.962 22.1742 112.73 22.1188V14.4924C113.436 13.7931 114.779 13.1643 116.136 13.1643C117.265 13.1643 118.118 13.6422 118.658 14.3817C119.327 13.7177 120.345 13.1643 121.376 13.1643C123.425 13.1643 124.572 14.7691 124.572 16.5248H124.567Z" fill="white"/>
<path d="M47.3197 34.5062C47.3197 36.8354 45.8289 38.1635 43.0795 38.1635C41.6378 38.1635 40.7362 38.0729 39.9998 37.922V26.2911C40.7362 26.1251 41.7048 25.9792 43.0125 25.9792C45.6013 25.9792 46.8287 27.0659 46.8287 29.1335C46.8287 30.371 46.3199 31.1809 45.5165 31.6639C46.6457 32.0915 47.3197 32.9718 47.3197 34.5062ZM41.3254 27.3627V31.1658H43.2759C44.9318 31.1658 45.5522 30.4112 45.5522 29.1335C45.5522 27.9311 44.6997 27.2671 43.0973 27.2671C42.4903 27.2671 41.919 27.2872 41.3254 27.3576V27.3627ZM46.0119 34.5816C46.0119 33.158 45.0478 32.514 43.4232 32.514H41.3254V36.7046C41.736 36.78 42.2448 36.8354 42.9947 36.8354C45.1237 36.8354 46.0074 36.1864 46.0074 34.5816H46.0119Z" fill="white"/>
<path d="M55.408 32.3816V37.3468C54.6894 37.7895 53.3281 38.197 52.114 38.197C49.7529 38.197 48.7888 36.9796 48.7888 35.3748C48.7888 33.6041 50.1635 32.608 51.9667 32.608C52.8192 32.608 53.5557 32.7941 54.1136 33.0507V32.3866C54.1136 31.0787 53.3593 30.3744 52.0024 30.3744C51.0696 30.3744 50.284 30.7617 49.8065 31.1692C49.4315 30.968 49.1994 30.5806 49.137 30.1732C49.6279 29.6198 50.7572 28.991 52.0694 28.991C53.9217 28.991 55.4125 29.9518 55.4125 32.3866L55.408 32.3816ZM52.1319 36.8689C52.9174 36.8689 53.6048 36.7231 54.1136 36.5168V34.3939C53.4932 34.0618 52.7523 33.916 51.9667 33.916C50.9 33.916 50.1501 34.3033 50.1501 35.2994C50.1501 36.2401 50.8063 36.8689 52.1319 36.8689Z" fill="white"/>
<path d="M64.6066 32.5325V37.9405C64.3923 37.9958 64.1468 38.0159 63.9371 38.0159C63.7273 38.0159 63.513 37.9958 63.281 37.9405V33.0507C63.281 31.1491 62.5088 30.3744 61.0225 30.3744C60.1566 30.3744 59.3844 30.6863 58.9426 30.9831V37.9455C58.7283 38.0008 58.4828 38.021 58.2731 38.021C58.0633 38.021 57.849 38.0008 57.6169 37.9455V30.3191C58.3713 29.6198 59.6969 28.991 61.1564 28.991C63.5621 28.991 64.611 30.6511 64.611 32.5376L64.6066 32.5325Z" fill="white"/>
<path d="M73.4805 37.9023C73.2038 37.9777 72.8423 38.0331 72.5611 38.0331C72.3468 38.0331 72.1505 38.018 71.905 37.9777L68.9904 34.2299C68.7449 34.416 68.4816 34.5971 68.2182 34.7833V37.9375C68.004 37.9928 67.7764 38.0129 67.5621 38.0129C67.3479 38.0129 67.1381 37.9928 66.906 37.9375V25.8086C67.1336 25.7533 67.3479 25.7332 67.5621 25.7332C67.7764 25.7332 68.004 25.7533 68.2182 25.8086V33.2137C69.593 32.2378 70.7713 30.9801 71.6416 29.2445C71.8871 29.1892 72.1014 29.1892 72.3156 29.1892C72.512 29.1892 72.8244 29.2244 73.0521 29.32C72.1817 31.0354 71.1328 32.3484 70.0214 33.3646L73.4761 37.9073L73.4805 37.9023Z" fill="white"/>
</svg>
